<?xml version="1.0" encoding="utf-8"?><!-- Uploaded to: SVG Repo, www.svgrepo.com, Generator: SVG Repo Mixer Tools -->
<svg width="800px" height="800px" viewBox="0 0 48 48" xmlns="http://www.w3.org/2000/svg"><title>70 Basic icons by Xicons.co</title><path d="M13,2H35a2,2,0,0,1,2,2V42a4,4,0,0,1-4,4H15a4,4,0,0,1-4-4V4A2,2,0,0,1,13,2Z" fill="#d7dadb"/><path d="M24,39a2,2,0,1,0,2,2,2,2,0,0,0-2-2h0Z" fill="#9ca3a7"/><rect x="11" y="9" width="26" height="28" fill="#495660"/><path d="M26,7H22a1,1,0,0,1,0-2h4A1,1,0,0,1,26,7Z" fill="#9ca3a7"/></svg>